<?xml version="1.0" standalone="no"?><!DOCTYPE svg PUBLIC "-//W3C//DTD SVG 1.1//EN" "http://www.w3.org/Graphics/SVG/1.1/DTD/svg11.dtd"><svg t="1513165840590" class="icon" style="" viewBox="0 0 1026 1024" version="1.1" xmlns="http://www.w3.org/2000/svg" p-id="2241" xmlns:xlink="http://www.w3.org/1999/xlink" width="200.390625" height="200"><defs><style type="text/css"></style></defs><path d="M408.33024 90.23488c-75.3664 1.37216-130.39616 23.83872-163.84 67.85024-39.60832 52.16256-46.7968 131.60448-21.77024 235.52-9.19552 11.264-16.15872 28.38528-13.43488 51.2 5.44768 45.11744 22.95808 63.6928 37.76512 71.02464 7.04512 35.45088 26.56256 75.28448 45.44512 94.08512v9.60512c0.16384 20.80768 0.08192 38.8096-1.92512 62.07488-12.55424 28.81536-54.23104 45.6704-102.4 64.65536C108.17536 777.76896 8.72448 816.5376 1.29024 940.81024L0 962.56h821.78048L820.49024 940.78976c-0.47104-8.62208-1.8432-16.46592-3.19488-24.30976-0.4096-2.00704-0.88064-3.85024-1.29024-5.75488-1.26976-5.9392-2.1504-11.75552-3.82976-17.28512-0.49152-1.59744-1.4336-2.8672-1.92512-4.48512-2.00704-5.8368-3.91168-11.91936-6.41024-17.26464-0.38912-0.88064-0.86016-1.69984-1.26976-2.58048a162.87744 162.87744 0 0 0-9.60512-17.26464c-36.5568-57.28256-102.31808-83.29216-158.72-105.61536-47.9232-18.944-89.82528-35.84-102.4-64.63488-1.98656-23.20384-1.4336-40.71424-1.26976-61.44v-10.24c18.39104-18.80064 37.2736-58.4704 44.15488-94.06464 14.39744-7.45472 32.39936-26.09152 37.76512-71.0656 2.72384-22.3232-3.85024-39.26016-12.8-50.54464 11.91936-40.5504 36.2496-146.16576-5.77536-213.77024a111.2064 111.2064 0 0 0-35.18464-35.18464c-6.41024-4.096-13.1072-7.92576-20.48-10.89536a143.09376 143.09376 0 0 0-23.69536-7.02464c-19.3536-24.41216-56.46336-37.13024-106.22976-37.13024z m266.87488 20.48c-29.04064 0.57344-54.23104 5.28384-76.14464 13.45536a155.68896 155.68896 0 0 1 30.06464 35.18464c44.17536 71.12704 30.4128 168.07936 14.72512 229.13024 8.72448 18.39104 11.59168 39.36256 8.97024 61.44-5.69344 47.59552-23.20384 74.62912-41.61536 90.23488-8.3968 31.04768-23.20384 62.95552-39.66976 85.11488-0.16384 15.52384-0.32768 28.65152 0.63488 44.17536 11.12064 12.55424 48.47616 27.19744 76.8 38.37952 62.73024 24.80128 150.3232 59.76064 190.73024 144.01536h186.85952L1025.29024 830.0544c-6.41024-106.7008-91.3408-140.22656-159.35488-167.03488-37.76512-14.88896-73.44128-29.12256-83.84512-51.83488-1.51552-19.12832-1.4336-33.9968-1.29024-51.2V552.96c16.32256-17.03936 31.37536-50.64704 37.13024-78.72512 12.63616-7.10656 27.4432-23.59296 32.01024-61.44 2.23232-18.88256-2.72384-33.44384-10.24-43.52 10.30144-35.59424 29.75744-124.06784-5.77536-181.10464-15.11424-24.33024-37.90848-39.28064-67.82976-45.4656-17.12128-20.7872-48.55808-31.98976-90.89024-31.98976z" p-id="2242"></path></svg>