<?xml version="1.0" standalone="no"?><!DOCTYPE svg PUBLIC "-//W3C//DTD SVG 1.1//EN" "http://www.w3.org/Graphics/SVG/1.1/DTD/svg11.dtd"><svg t="1512820184003" class="icon" style="" viewBox="0 0 1024 1024" version="1.1" xmlns="http://www.w3.org/2000/svg" p-id="1882" xmlns:xlink="http://www.w3.org/1999/xlink" width="200" height="200"><defs><style type="text/css"></style></defs><path d="M512 960c-249.6 0-448-198.4-448-448s198.4-448 448-448 448 198.4 448 448-198.4 448-448 448zM512 128C300.8 128 128 300.8 128 512s172.8 384 384 384 384-172.8 384-384-172.8-384-384-384z m0 646.4c-89.6 0-172.8-38.4-224-108.8-12.8-12.8-6.4-32 6.4-44.8 12.8-12.8 32-6.4 44.8 6.4 44.8 57.6 108.8 83.2 179.2 83.2 70.4 0 134.4-32 179.2-89.6 12.8-12.8 32-19.2 44.8-6.4s19.2 32 6.4 44.8c-64 70.4-147.2 115.2-236.8 115.2z m-140.8-256c-25.6 0-51.2-25.6-51.2-51.2v-64c0-25.6 19.2-51.2 51.2-51.2s51.2 19.2 51.2 51.2v64c-6.4 25.6-25.6 51.2-51.2 51.2z m288 0c-25.6 0-51.2-19.2-51.2-51.2v-64c0-25.6 19.2-51.2 51.2-51.2s44.8 25.6 44.8 51.2v64c0 25.6-19.2 51.2-44.8 51.2z" fill="#040000" p-id="1883"></path></svg>