<?xml version="1.0" standalone="no"?><!DOCTYPE svg PUBLIC "-//W3C//DTD SVG 1.1//EN" "http://www.w3.org/Graphics/SVG/1.1/DTD/svg11.dtd"><svg t="1513165811716" class="icon" style="" viewBox="0 0 1024 1024" version="1.1" xmlns="http://www.w3.org/2000/svg" p-id="1919" xmlns:xlink="http://www.w3.org/1999/xlink" width="200" height="200"><defs><style type="text/css"></style></defs><path d="M450.947697 414.376269c0 35.272443-28.677596 63.950039-63.950039 63.950039s-63.950039-28.677596-63.950039-63.950039c0-35.372365 28.677596-63.950039 63.950039-63.950039s63.950039 28.677596 63.950039 63.950039z m189.451991 63.950039c35.372365 0 63.950039-28.677596 63.950039-63.950039 0-35.372365-28.577674-63.950039-63.950039-63.950039s-63.950039 28.677596-63.950039 63.950039 28.677596 63.950039 63.950039 63.950039z m254.501171 353.523809v128.199844c0 35.272443-28.677596 63.950039-63.950039 63.950039H192.849336c-35.272443 0-63.950039-28.677596-63.950039-63.950039V831.850117c0-35.272443 28.677596-63.950039 63.950039-63.950039h191.050742l0.099922-0.099922v-66.947697H257.798595c-35.272443 0-63.950039-28.677596-63.950039-63.950039V191.850117c0-35.272443 28.677596-63.950039 63.950039-63.950039h126.201405V63.950039c0-35.272443 28.677596-63.950039 63.950039-63.950039h128.899297c35.272443 0 63.950039 28.677596 63.950039 63.950039v63.950039h127.100703c35.272443 0 63.950039 28.677596 63.950039 63.950039v445.052303c0 35.272443-28.677596 63.950039-63.950039 63.950039H640.799375v66.947697l0.099922 0.099922h190.051523c35.172521 0 63.950039 28.677596 63.950039 63.950039zM447.950039 127.900078h128.899297V64.049961l-0.099921-0.099922H447.950039l-0.099922 0.099922 0.099922 63.850117z m0 509.002342h319.950039l0.099922-0.099922V191.950039l-0.099922-0.099922H257.898517l-0.099922 0.099922v444.952381l0.099922 0.099922 190.051522-0.099922z m383.000781 195.047619l-190.151445-0.099922c-35.272443 0-63.950039-28.677596-63.950039-63.950039v-66.947697l-0.099921-0.099922H447.950039l-0.099922 0.099922v66.947697c0 35.272443-28.677596 63.950039-63.950039 63.950039H192.949258l-0.099922 0.099922v128.099922l0.099922 0.099922h637.90164l0.099922-0.099922V831.950039z m64.449648-581.445745c-17.686183 0-31.97502 14.288837-31.975019 31.975019v263.793911c0.199844 17.686183 14.788447 31.775176 32.374707 31.575332 17.286495-0.199844 31.275566-14.188915 31.575332-31.575332v-263.793911c0-17.686183-14.288837-31.97502-31.97502-31.975019z m95.425449 66.048399c-17.686183 0-31.97502 14.288837-31.975019 31.97502v128c0 17.686183 14.288837 31.97502 31.975019 31.975019s31.97502-14.288837 31.97502-31.975019V348.527713c0-17.686183-14.288837-31.97502-31.97502-31.97502zM159.97502 546.273224v-263.793911c-0.199844-17.686183-14.788447-31.775176-32.374708-31.575332-17.286495 0.199844-31.275566 14.188915-31.575332 31.575332v263.793911c-0.199844 17.686183 13.889149 32.174863 31.575332 32.374707 17.686183 0.199844 32.174863-13.889149 32.374708-31.575331v-0.799376zM32.574551 316.552693c-17.686183 0-31.97502 14.288837-31.975019 31.97502v128c0 17.686183 14.288837 31.97502 31.975019 31.975019s31.97502-14.288837 31.97502-31.975019V348.527713c0-17.686183-14.288837-31.97502-31.97502-31.97502z" fill="#333333" p-id="1920"></path></svg>